version = 1
nColumns = 19
nRows = 20
inDegrees = yes
endheader 
time	r_ground_force_vx	r_ground_force_vy	r_ground_force_vz	r_ground_force_px	r_ground_force_py	r_ground_force_pz	l_ground_force_vx	l_ground_force_vy	l_ground_force_vz	l_ground_force_px	l_ground_force_py	l_ground_force_pz	r_ground_torque_x	r_ground_torque_y	r_ground_torque_z	l_ground_torque_x	l_ground_torque_y	l_ground_torque_z	
          0.38453824	          0.00000000	          0.00000000	          0.00000000	          0.00000000	          0.00000000	          0.00000000	        123.20062024	        805.37966451	        -25.78795395	          0.22953894	          0.00000000	          0.06099789	          0.00000000	          0.00000000	          0.00000000	          0.00000000	         -2.84049842	          0.00000000	
          0.38533321	          0.00000000	          0.00000000	          0.00000000	          0.00000000	          0.00000000	          0.00000000	        123.51756020	        795.61029347	        -25.65988684	          0.23004810	          0.00000000	          0.06139587	          0.00000000	          0.00000000	          0.00000000	          0.00000000	         -2.76024076	          0.00000000	
          0.38784501	          0.00000000	          0.00000000	          0.00000000	          0.00000000	          0.00000000	          0.00000000	        124.00116992	        764.73561410	        -25.27801910	          0.23171038	          0.00000000	          0.06271223	          0.00000000	          0.00000000	          0.00000000	          0.00000000	         -2.48473446	          0.00000000	
          0.38966542	          0.00000000	          0.00000000	          0.00000000	          0.00000000	          0.00000000	          0.00000000	        123.91231351	        742.39436226	        -25.03673535	          0.23296801	          0.00000000	          0.06372522	          0.00000000	          0.00000000	          0.00000000	          0.00000000	         -2.26683565	          0.00000000	
          0.39046039	          0.00000000	          0.00000000	          0.00000000	          0.00000000	          0.00000000	          0.00000000	        123.76218595	        732.65425586	        -24.94496090	          0.23353172	          0.00000000	          0.06418388	          0.00000000	          0.00000000	          0.00000000	          0.00000000	         -2.16756032	          0.00000000	
          0.39297218	          0.00000000	          0.00000000	          0.00000000	          0.00000000	          0.00000000	          0.00000000	        122.79331901	        702.02292140	        -24.73574408	          0.23537061	          0.00000000	          0.06569877	          0.00000000	          0.00000000	          0.00000000	          0.00000000	         -1.83757819	          0.00000000	
          0.39479259	          0.00000000	          0.00000000	          0.00000000	          0.00000000	          0.00000000	          0.00000000	        121.69216425	        679.98829566	        -24.65022233	          0.23676025	          0.00000000	          0.06685995	          0.00000000	          0.00000000	          0.00000000	          0.00000000	         -1.58449662	          0.00000000	
          0.39558757	          0.00000000	          0.00000000	          0.00000000	          0.00000000	          0.00000000	          0.00000000	        121.10927599	        670.40262371	        -24.64898684	          0.23738295	          0.00000000	          0.06738348	          0.00000000	          0.00000000	          0.00000000	          0.00000000	         -1.47051172	          0.00000000	
          0.39809936	          0.00000000	          0.00000000	          0.00000000	          0.00000000	          0.00000000	          0.00000000	        118.75050430	        640.17326956	        -24.89783090	          0.23941806	          0.00000000	          0.06909347	          0.00000000	          0.00000000	          0.00000000	          0.00000000	         -1.09409893	          0.00000000	
          0.39991977	          0.00000000	          0.00000000	          0.00000000	          0.00000000	          0.00000000	          0.00000000	        116.61642792	        618.34554113	        -25.23897391	          0.24096031	          0.00000000	          0.07038149	          0.00000000	          0.00000000	          0.00000000	          0.00000000	         -0.80846751	          0.00000000	
          0.40071474	          0.00000000	          0.00000000	          0.00000000	          0.00000000	          0.00000000	          0.00000000	        115.84293857	        608.60700978	        -25.36742065	          0.24166405	          0.00000000	          0.07096337	          0.00000000	          0.00000000	          0.00000000	          0.00000000	         -0.68036992	          0.00000000	
          0.40322654	          0.00000000	          0.00000000	          0.00000000	          0.00000000	          0.00000000	          0.00000000	        114.38823867	        576.56009195	        -25.69159949	          0.24405618	          0.00000000	          0.07291579	          0.00000000	          0.00000000	          0.00000000	          0.00000000	         -0.27593885	          0.00000000	
          0.40504695	          0.00000000	          0.00000000	          0.00000000	          0.00000000	          0.00000000	          0.00000000	        113.48986387	        552.83472401	        -25.96238976	          0.24593694	          0.00000000	          0.07443108	          0.00000000	          0.00000000	          0.00000000	          0.00000000	          0.01953097	          0.00000000	
          0.40584192	          0.00000000	          0.00000000	          0.00000000	          0.00000000	          0.00000000	          0.00000000	        113.02554442	        542.37230824	        -26.08174431	          0.24680141	          0.00000000	          0.07512550	          0.00000000	          0.00000000	          0.00000000	          0.00000000	          0.15245380	          0.00000000	
          0.40835371	          0.00000000	          0.00000000	          0.00000000	          0.00000000	          0.00000000	          0.00000000	        111.24871845	        508.97420208	        -26.41472924	          0.24973684	          0.00000000	          0.07745919	          0.00000000	          0.00000000	          0.00000000	          0.00000000	          0.58792616	          0.00000000	
          0.41017412	          0.00000000	          0.00000000	          0.00000000	          0.00000000	          0.00000000	          0.00000000	        109.56268037	        485.03511048	        -26.32253617	          0.25199173	          0.00000000	          0.07914552	          0.00000000	          0.00000000	          0.00000000	          0.00000000	          0.88527723	          0.00000000	
          0.41096910	          0.00000000	          0.00000000	          0.00000000	          0.00000000	          0.00000000	          0.00000000	        108.80209604	        475.55844281	        -25.87863054	          0.25288825	          0.00000000	          0.07966404	          0.00000000	          0.00000000	          0.00000000	          0.00000000	          0.94347138	          0.00000000	
          0.41348089	          0.00000000	          0.00000000	          0.00000000	          0.00000000	          0.00000000	          0.00000000	        106.87542744	        446.06718552	        -20.84485568	          0.25530821	          0.00000000	          0.08011240	          0.00000000	          0.00000000	          0.00000000	          0.00000000	          0.74432651	          0.00000000	
          0.41530130	          0.00000000	          0.00000000	          0.00000000	          0.00000000	          0.00000000	          0.00000000	        106.05084415	        423.18854168	        -16.89178485	          0.25730503	          0.00000000	          0.08050113	          0.00000000	          0.00000000	          0.00000000	          0.00000000	          0.63123631	          0.00000000	
          0.41609627	          0.00000000	          0.00000000	          0.00000000	          0.00000000	          0.00000000	          0.00000000	        106.05134665	        414.00114819	        -15.62692447	          0.25816440	          0.00000000	          0.08071062	          0.00000000	          0.00000000	          0.00000000	          0.00000000	          0.59948096	          0.00000000	
